P2
# CREATOR: GIMP PNM Filter Version 1.1
72 72
255
255
255
255
255
255
255
255
255
255
255
255
255
255
255
255
255
255
254
255
255
255
255
255
255
255
255
254
251
250
251
252
253
253
255
254
253
255
255
255
255
252
255
255
255
255
255
255
254
249
255
255
255
255
255
255
255
255
255
255
255
255
255
255
255
255
255
255
255
255
255
255
255
255
255
255
255
255
255
255
255
255
255
255
255
255
255
255
255
255
255
255
255
255
253
252
252
253
255
255
255
255
255
255
255
255
254
255
255
255
255
253
253
253
252
244
247
255
255
249
252
255
254
254
254
254
255
255
255
255
255
255
255
255
255
255
255
255
255
255
255
255
255
255
255
255
255
255
255
255
255
255
255
255
255
255
255
255
255
255
255
255
255
255
254
255
255
255
255
255
254
253
253
255
255
252
246
241
248
254
255
255
255
252
254
255
255
255
255
249
254
255
255
245
253
253
253
254
255
255
255
255
255
255
255
255
255
255
255
255
255
255
255
255
255
255
255
255
255
255
255
255
255
255
255
255
255
255
255
255
255
255
255
255
254
252
252
255
255
255
253
247
255
254
250
251
255
255
255
255
255
254
249
252
255
249
231
214
157
122
76
64
112
190
248
255
252
253
253
254
254
255
255
255
255
255
255
255
255
255
255
255
255
255
255
255
255
255
255
255
255
255
255
255
255
255
255
255
255
255
255
255
255
255
255
255
255
254
252
253
253
246
232
220
188
180
173
175
190
210
229
240
237
177
105
66
63
62
43
20
31
12
16
31
18
18
96
197
252
252
253
253
254
255
255
255
255
255
255
255
255
255
255
255
255
255
255
255
255
255
255
255
255
255
255
255
255
255
255
255
255
252
255
252
253
255
250
255
255
252
255
236
174
111
60
22
21
18
14
11
11
23
51
77
61
34
17
21
26
22
22
30
28
28
28
28
28
28
28
28
102
151
215
255
242
255
255
253
255
253
254
254
250
255
255
255
255
255
255
255
255
255
255
255
255
255
255
255
255
255
255
255
254
255
248
255
249
255
255
241
255
255
184
84
29
14
18
34
25
26
30
32
29
25
27
32
40
27
23
30
32
26
24
30
28
28
28
28
28
28
28
28
20
8
55
118
211
255
246
255
251
251
253
252
252
255
255
247
255
255
255
255
255
255
255
255
255
255
255
255
255
255
255
255
251
255
248
255
252
254
255
252
250
155
49
12
28
36
27
24
32
29
29
32
32
28
23
21
24
26
30
33
32
28
27
30
28
28
28
28
28
28
28
28
26
29
13
11
72
166
255
247
255
255
255
253
251
255
255
255
255
255
255
255
255
255
255
255
255
255
255
255
255
255
255
255
254
255
255
248
255
250
244
255
173
51
3
33
33
30
37
25
32
27
23
23
27
30
32
32
26
30
32
28
25
27
29
30
28
28
28
28
28
28
28
28
34
44
29
28
13
36
183
253
250
255
255
255
255
252
255
255
255
255
255
255
255
255
255
255
255
255
255
255
255
255
255
255
255
255
255
246
255
248
255
214
51
17
32
45
13
13
37
26
25
27
29
30
30
30
28
26
29
32
30
25
24
28
30
27
28
28
28
28
28
28
28
28
18
21
31
29
33
20
45
223
249
252
250
255
255
254
247
255
255
255
255
255
255
255
255
255
255
255
255
255
255
255
255
255
255
255
249
255
255
251
255
105
8
24
29
29
37
40
31
24
25
30
32
30
27
28
28
27
26
27
27
27
30
32
29
24
28
28
28
28
28
28
28
28
27
44
31
15
26
41
22
105
254
255
255
249
255
255
250
255
255
255
255
255
255
255
255
255
255
255
255
255
255
255
255
255
255
255
251
255
249
255
203
32
34
38
24
18
27
20
15
33
28
30
28
24
23
28
33
33
26
25
26
30
31
29
27
27
28
28
28
28
28
28
28
28
24
30
17
42
35
20
36
22
171
234
255
248
252
255
255
255
255
255
255
255
255
255
255
255
255
255
255
255
255
255
255
255
255
255
255
250
249
255
106
20
28
23
33
37
25
26
34
29
26
29
30
28
29
32
29
23
32
27
26
29
27
23
25
31
28
28
28
28
28
28
28
28
30
31
34
21
34
25
30
24
31
165
254
255
251
255
252
251
255
255
255
255
255
255
255
255
255
255
255
255
255
255
255
255
255
255
255
250
255
235
51
24
28
28
28
28
28
28
28
28
28
28
28
28
28
28
28
28
28
28
28
28
28
28
28
28
28
28
28
28
28
28
28
28
28
28
28
28
28
28
28
28
31
11
151
255
246
255
253
255
255
255
255
255
255
255
255
255
255
255
255
255
255
255
255
255
251
255
255
255
255
163
28
23
28
28
28
28
28
28
28
28
28
28
28
28
28
28
28
28
28
28
28
28
28
28
28
28
28
28
28
28
28
28
28
28
28
28
28
28
28
28
28
28
30
34
28
171
251
240
250
255
255
255
255
255
255
255
255
255
255
255
255
255
255
255
255
255
252
255
254
251
255
118
28
23
28
28
28
28
28
28
28
28
28
28
28
28
28
28
28
28
28
28
28
28
28
28
28
28
28
28
28
28
28
28
28
28
28
28
28
28
28
28
28
28
26
29
20
67
231
255
251
252
255
255
255
255
255
255
255
255
255
255
255
255
255
255
255
255
255
255
251
250
249
102
22
31
28
28
28
28
28
28
28
28
28
28
28
28
28
28
28
28
28
28
28
28
28
28
28
28
28
28
28
28
28
28
28
28
28
28
28
28
28
28
28
28
33
17
41
8
140
255
249
255
255
255
255
255
255
255
255
255
255
255
255
255
255
255
255
255
255
252
251
255
247
119
8
34
28
28
28
28
28
28
28
28
28
28
28
28
28
28
28
28
28
28
28
28
28
28
28
28
28
28
28
28
28
28
28
28
28
28
28
28
28
28
28
28
29
29
16
47
127
245
252
255
255
255
255
255
255
255
255
255
255
255
255
255
255
255
255
255
253
255
255
251
255
189
36
19
28
28
28
28
28
28
28
28
28
28
28
28
28
28
28
28
28
28
28
28
28
28
28
28
28
28
28
28
28
28
28
28
28
28
28
28
28
28
28
28
23
31
27
50
179
253
255
248
255
255
255
255
255
255
255
255
255
255
255
255
255
255
255
255
252
255
255
245
255
203
50
17
28
28
28
28
28
28
28
28
28
28
28
28
28
28
28
28
28
28
28
28
28
28
28
28
28
28
28
28
28
28
28
28
28
28
28
28
28
28
28
28
31
23
39
0
135
248
255
254
255
255
255
255
255
255
255
255
255
255
255
255
255
255
255
255
255
250
251
255
249
130
12
39
28
28
28
28
28
28
28
28
28
28
28
28
28
28
28
28
28
28
28
28
28
28
28
28
28
28
28
28
28
28
28
28
28
28
28
28
28
28
28
28
23
32
22
26
73
241
246
255
255
255
255
255
255
255
255
255
255
255
255
255
255
255
255
255
251
255
244
255
213
55
19
34
28
28
28
28
28
28
28
28
28
28
28
28
28
28
28
28
28
28
28
28
28
28
28
28
29
30
29
25
26
30
31
27
28
28
28
28
28
28
28
28
26
27
27
50
96
215
255
251
255
255
255
255
255
255
255
255
255
255
255
255
255
255
255
255
250
255
255
250
146
27
18
29
28
28
28
28
28
28
28
28
28
28
28
28
28
28
28
28
28
28
28
28
28
28
28
28
26
28
28
26
27
30
29
25
28
28
28
28
28
28
28
28
30
25
31
105
239
249
250
255
255
255
255
255
255
255
255
255
255
255
255
255
255
255
255
255
255
247
255
232
71
16
28
27
28
28
28
28
28
28
28
28
28
28
28
28
28
28
28
28
28
28
28
28
28
28
28
28
25
28
29
28
28
29
28
25
28
28
28
28
28
28
28
28
34
30
10
72
245
254
254
255
255
255
255
255
255
255
255
255
255
255
255
255
255
255
255
255
255
246
255
195
27
29
36
26
28
28
28
28
28
28
28
28
28
28
28
28
28
28
28
28
28
28
28
28
28
28
28
28
27
29
30
29
28
28
29
29
28
28
28
28
28
28
28
28
26
31
17
48
182
255
255
245
255
255
255
255
255
255
255
255
255
255
255
255
255
255
255
255
255
252
248
146
11
36
29
26
28
28
28
28
28
28
28
28
28
28
28
28
28
28
28
28
28
28
28
28
28
28
28
28
28
28
28
27
26
25
28
31
28
28
28
28
28
28
28
28
30
24
31
31
157
255
246
255
255
255
255
255
255
255
255
255
255
255
255
255
255
255
255
255
246
255
243
103
12
32
23
29
28
28
28
28
28
28
28
28
28
28
28
28
28
28
28
28
28
28
28
28
28
28
28
28
27
26
27
27
25
23
25
30
28
28
28
28
28
28
28
28
31
26
39
0
148
255
240
255
255
255
255
255
255
255
255
255
255
255
255
255
255
255
255
255
250
255
230
66
20
28
28
29
28
28
28
28
28
28
28
28
28
28
28
28
28
28
28
28
28
28
28
28
28
28
28
28
26
27
30
33
30
25
26
30
28
28
28
28
28
28
28
28
23
30
47
4
135
255
253
251
255
255
255
255
255
255
255
255
255
255
255
255
255
255
255
255
255
253
211
39
24
28
36
22
28
28
28
28
28
28
28
28
28
28
28
28
28
28
28
28
28
28
28
28
28
28
28
28
26
29
35
40
37
29
27
31
28
28
28
28
28
28
28
28
38
18
24
29
88
235
255
253
255
255
255
255
255
255
255
255
255
255
255
255
255
255
255
255
249
255
201
19
28
25
29
29
27
26
34
23
23
32
33
25
27
29
26
32
31
25
31
33
27
27
34
25
49
36
34
17
35
21
89
207
50
35
25
30
31
28
29
32
29
23
29
29
29
28
23
25
42
204
255
247
255
255
255
255
255
255
255
255
255
255
255
255
255
255
255
255
253
253
184
10
32
32
31
25
28
28
25
36
35
27
14
33
33
21
31
41
22
18
29
17
37
23
18
68
150
46
15
49
10
21
205
255
135
7
38
27
33
25
28
16
38
30
41
19
28
23
35
40
122
239
253
252
255
255
255
255
255
255
255
255
255
255
255
255
255
255
255
255
255
248
175
7
33
32
30
26
20
36
23
28
25
29
20
40
33
28
26
18
20
42
47
25
27
16
65
226
136
25
22
13
50
166
255
255
242
91
7
31
19
36
29
24
34
18
23
31
32
26
23
59
214
255
249
255
255
255
255
255
255
255
255
255
255
255
255
255
255
255
255
255
255
251
181
12
31
24
26
32
30
33
22
25
29
37
33
17
20
25
35
40
37
11
0
34
24
98
227
161
35
19
41
82
178
255
253
245
255
212
78
14
24
14
33
118
58
40
30
21
28
33
7
81
255
253
252
255
255
255
255
255
255
255
255
255
255
255
255
255
255
255
255
255
255
251
183
14
31
24
26
32
26
23
34
31
11
8
47
35
40
27
29
21
26
56
81
108
210
255
229
128
125
154
213
248
255
252
255
244
255
255
222
122
63
31
124
252
77
7
37
27
23
32
17
73
229
255
251
250
255
255
255
255
255
255
255
255
255
255
255
255
255
255
255
255
255
250
180
11
34
31
28
26
35
28
27
52
85
153
229
217
80
28
30
18
26
125
219
255
249
247
254
255
247
255
252
255
223
184
167
158
188
199
237
255
229
172
194
255
136
21
28
19
31
27
29
38
171
255
247
254
255
255
255
255
255
255
255
255
255
255
255
255
255
255
255
255
252
255
190
16
33
30
29
25
23
25
34
174
251
255
177
101
56
10
27
35
15
23
99
225
254
255
247
229
255
255
218
133
65
25
8
20
13
39
88
127
224
253
255
253
144
23
26
46
34
30
21
50
189
253
250
255
255
255
255
255
255
255
255
255
255
255
255
255
255
255
255
255
247
255
209
27
30
23
27
29
29
26
34
235
254
142
9
22
94
106
73
20
33
20
6
103
255
243
252
255
246
246
85
10
10
27
39
23
33
21
16
3
41
149
237
255
100
21
38
18
23
38
9
110
255
243
255
250
255
255
255
255
255
255
255
255
255
255
255
255
255
255
255
255
255
245
235
51
18
27
24
30
33
18
36
246
231
51
84
243
235
167
136
71
50
53
46
140
238
255
244
253
255
249
120
40
86
137
159
180
183
170
152
103
51
51
169
255
77
17
34
21
26
35
18
152
252
253
254
255
255
255
255
255
255
255
255
255
255
255
255
255
255
255
255
255
251
255
231
67
24
40
35
20
22
37
63
248
222
159
255
197
114
171
218
248
255
177
122
214
251
255
251
247
255
255
247
220
204
150
147
152
138
124
156
245
255
250
241
255
91
31
17
38
27
19
50
182
255
250
249
255
255
255
255
255
255
255
255
255
255
255
255
255
255
255
255
255
253
255
244
110
19
33
18
29
32
16
77
232
255
255
213
135
240
238
254
255
246
251
234
120
223
239
255
248
254
249
255
226
125
184
255
255
255
244
175
125
236
253
255
244
91
25
23
24
29
17
60
228
255
250
255
252
255
255
255
255
255
255
255
255
255
255
255
255
255
255
255
255
255
248
255
151
10
36
15
36
18
46
50
220
250
255
130
219
240
251
255
255
248
248
255
187
98
124
142
111
120
134
118
115
226
255
251
238
245
255
253
193
145
247
255
216
49
16
25
31
29
26
61
255
250
252
255
247
255
255
255
255
255
255
255
255
255
255
255
255
255
255
255
255
254
252
255
191
29
35
38
27
28
4
127
160
238
211
175
231
255
255
237
246
255
253
240
255
94
169
231
218
213
211
111
177
255
254
240
255
255
241
255
255
148
212
238
123
130
39
36
28
23
27
115
255
249
254
255
251
255
255
255
255
255
255
255
255
255
255
255
255
255
255
255
255
252
255
247
246
97
5
30
27
40
11
204
202
133
113
150
255
245
248
255
255
247
254
255
254
139
213
255
255
253
247
104
243
250
245
255
255
253
255
246
255
203
133
197
161
244
60
19
24
16
44
208
248
255
255
247
255
255
255
255
255
255
255
255
255
255
255
255
255
255
255
255
255
254
255
245
255
193
51
18
31
30
18
182
255
218
134
138
236
255
255
251
253
253
250
251
252
147
220
248
249
255
255
109
245
255
250
255
248
251
255
248
253
209
66
99
204
255
152
22
27
20
109
255
249
255
255
246
255
255
255
255
255
255
255
255
255
255
255
255
255
255
255
255
255
253
252
255
242
255
171
39
22
42
2
171
255
251
255
122
220
255
255
248
255
254
255
255
212
142
237
255
249
251
255
114
213
249
255
249
255
255
252
255
252
184
166
255
245
255
127
29
61
29
181
252
255
249
255
255
255
255
255
255
255
255
255
255
255
255
255
255
255
255
255
255
255
255
251
255
253
251
255
180
42
26
14
139
253
247
254
203
123
248
248
255
255
253
255
230
125
202
245
255
255
254
252
215
99
255
252
255
246
248
255
245
244
123
248
251
255
251
23
83
147
23
229
243
254
254
249
254
255
255
255
255
255
255
255
255
255
255
255
255
255
255
255
255
255
250
252
255
255
247
255
255
205
71
1
84
255
255
255
241
178
111
213
248
245
249
183
134
182
253
255
252
255
255
254
231
144
142
244
250
249
255
255
240
117
188
253
250
254
230
28
143
165
0
214
255
241
255
255
247
254
255
255
255
255
255
255
255
255
255
255
255
255
255
255
255
255
255
255
255
255
246
250
255
253
230
114
60
234
249
249
255
250
206
118
104
123
107
148
228
253
253
254
248
255
255
254
255
237
140
113
198
231
207
157
113
191
255
255
255
255
208
30
198
148
6
160
255
254
255
255
255
249
255
255
255
255
255
255
255
255
255
255
255
255
255
255
255
255
255
252
250
255
255
255
249
250
255
203
46
193
255
252
254
255
253
251
245
252
255
247
240
255
255
255
254
255
253
245
255
255
248
222
130
111
129
165
242
244
255
244
252
255
196
45
237
126
0
144
248
255
248
250
255
255
255
255
255
255
255
255
255
255
255
255
255
255
255
255
255
255
250
255
255
255
255
255
253
255
246
216
37
163
255
254
250
251
254
255
251
248
255
255
255
255
255
255
248
255
255
253
254
243
255
253
255
255
254
255
251
255
254
251
255
252
173
48
240
113
0
205
255
255
251
255
249
255
255
255
255
255
255
255
255
255
255
255
255
255
255
255
255
255
253
255
255
249
251
251
246
245
255
208
43
146
247
247
255
255
250
255
255
255
248
246
250
253
250
252
251
251
255
255
255
255
255
246
248
251
248
243
243
255
255
255
255
245
135
44
243
151
122
255
251
255
251
255
252
255
255
255
255
255
255
255
255
255
255
255
255
255
255
255
255
255
253
254
255
255
255
255
255
248
250
188
46
122
255
253
255
253
255
248
251
255
255
255
255
254
253
255
255
255
251
249
249
255
245
255
254
254
255
255
255
250
245
252
246
248
101
48
255
230
254
254
245
255
251
255
255
252
255
255
255
255
255
255
255
255
255
255
255
255
255
255
255
255
253
254
255
255
249
251
255
255
255
208
53
84
255
255
244
255
254
255
255
251
255
254
251
255
255
253
254
253
255
255
252
255
255
253
254
252
254
255
253
255
255
255
253
255
79
37
255
255
255
250
255
254
255
255
248
255
255
255
255
255
255
255
255
255
255
255
255
255
255
255
255
255
255
255
255
255
255
254
254
254
255
205
36
97
252
255
252
255
255
255
255
254
255
254
252
253
252
251
252
254
254
254
254
255
248
255
249
249
255
248
254
255
255
246
255
251
75
53
255
249
255
255
255
255
255
255
255
255
255
255
255
255
255
255
255
255
255
255
255
255
255
255
255
255
255
255
255
255
255
254
254
254
253
220
33
89
255
249
250
255
254
254
247
255
255
255
255
255
255
254
252
252
252
250
250
251
255
255
251
255
246
247
255
255
255
250
255
251
51
61
241
255
255
255
255
255
255
255
255
255
255
255
255
255
255
255
255
255
255
255
255
255
255
255
255
255
255
255
255
255
255
254
254
254
255
235
55
70
243
255
251
255
255
255
253
254
246
239
255
246
255
210
179
188
167
134
170
246
254
232
255
249
242
255
255
246
249
255
255
237
35
69
248
255
255
255
255
255
255
255
255
255
255
255
255
255
255
255
255
255
255
255
255
255
255
255
255
255
255
255
255
255
255
254
254
254
254
250
60
70
238
255
255
253
251
255
255
252
255
243
255
230
111
56
19
28
37
26
26
42
141
237
243
255
255
237
251
255
253
250
250
222
40
76
255
250
255
255
255
255
255
255
255
255
255
255
255
255
255
255
255
255
255
255
255
255
255
255
255
255
255
255
255
255
255
254
254
254
246
255
68
59
255
238
255
247
255
247
248
255
244
183
120
37
34
32
30
29
25
25
31
40
10
47
156
255
249
255
255
246
255
242
247
193
30
119
254
255
255
255
255
255
255
255
255
255
255
255
255
255
255
255
255
255
255
255
255
255
255
255
255
255
255
255
255
255
255
254
254
254
250
255
152
16
222
255
251
255
250
255
255
234
89
30
10
34
14
10
14
28
35
26
13
7
27
28
31
131
255
244
255
255
249
255
255
127
22
209
249
255
255
255
255
255
255
255
255
255
255
255
255
255
255
255
255
255
255
255
255
255
255
255
255
255
255
255
255
255
255
254
254
254
255
249
243
64
105
252
247
255
255
255
244
156
26
17
24
48
100
158
201
198
184
171
139
100
48
11
28
31
188
246
247
255
240
255
231
66
99
255
252
254
255
255
255
255
255
255
255
255
255
255
255
255
255
255
255
255
255
255
255
255
255
255
255
255
255
255
255
255
255
254
254
254
255
245
255
195
33
187
255
244
255
251
249
80
11
83
188
224
255
250
249
255
255
255
252
251
226
173
67
12
80
255
246
255
255
253
166
49
221
255
249
255
255
255
255
255
255
255
255
255
255
255
255
255
255
255
255
255
255
255
255
255
255
255
255
255
255
255
255
255
255
255
255
255
248
255
246
255
182
141
245
255
239
255
192
13
103
242
255
255
253
253
253
253
253
253
253
253
252
252
225
38
37
199
249
252
255
206
83
198
251
251
255
255
255
255
255
255
255
255
255
255
255
255
255
255
255
255
255
255
255
255
255
255
255
255
255
255
255
255
255
255
255
255
255
255
255
254
249
255
248
233
255
255
255
246
148
22
212
251
255
242
254
254
254
254
254
254
254
254
246
255
252
37
22
156
255
244
252
206
169
253
250
255
255
248
255
255
255
255
255
255
255
255
255
255
255
255
255
255
255
255
255
255
255
255
255
255
255
255
255
255
255
255
255
255
255
255
255
242
253
255
255
255
255
251
250
253
105
54
249
243
253
255
255
255
255
255
255
255
255
255
255
254
251
54
22
111
255
251
247
242
243
255
255
255
243
255
255
255
255
255
255
255
255
255
255
255
255
255
255
255
255
255
255
255
255
255
255
255
255
255
255
255
255
255
255
255
255
255
255
255
255
249
247
255
246
255
255
255
99
84
249
255
255
251
255
255
255
255
255
255
255
255
255
248
244
72
1
95
247
255
254
255
255
246
255
255
240
255
255
255
255
255
255
255
255
255
255
255
255
255
255
255
255
255
255
255
255
255
255
255
255
255
255
255
255
255
255
255
255
255
253
255
255
252
255
255
255
254
250
255
184
158
255
255
255
246
255
255
255
255
255
255
255
255
251
255
255
114
6
140
241
255
255
245
255
255
252
252
255
244
255
255
255
255
255
255
255
255
255
255
255
255
255
255
255
255
255
255
255
255
255
255
255
255
255
255
255
255
255
255
255
255
246
255
246
251
255
250
255
253
242
255
252
248
250
252
251
255
255
255
255
255
255
255
255
255
254
255
255
204
128
236
249
253
253
255
251
255
255
247
255
255
255
255
255
255
255
255
255
255
255
255
255
255
255
255
255
255
255
255
255
255
255
255
255
255
255
255
255
255
255
255
255
255
255
255
255
255
251
246
255
255
255
254
244
255
245
255
248
255
255
255
255
255
255
255
255
255
255
243
251
255
246
255
255
253
250
255
248
247
255
253
249
255
255
255
255
255
255
255
255
255
255
255
255
255
255
255
255
255
255
255
255
255
255
255
255
255
255
255
255
255
255
255
255
255
255
247
255
255
255
255
251
250
255
243
255
248
255
247
255
254
255
255
255
255
255
255
255
255
255
254
255
253
254
241
255
255
255
249
255
255
247
255
255
246
255
255
255
255
255
255
255
255
255
255
255
255
255
255
255
255
255
255
255
255
255
255
255
255
255
255
255
255
255
255
255
255
255
255
255
255
255
255
255
255
255
255
255
255
255
255
255
255
255
255
255
255
255
255
255
255
255
255
255
255
255
255
255
255
255
255
255
255
255
255
255
255
255
255
255
255
255
255
255
255
255
255
255
255
255
255
255
255
255
255
255
255
255
255
255
255
255
255
255
255
255
255
255
255
255
255
255
255
255
255
255
255
255
255
255
255
255
255
255
255
255
255
255
255
255
255
255
255
255
255
255
255
255
255
255
255
255
255
255
255
255
255
255
255
255
255
255
255
255
255
255
255
255
255
255
255
255
255
255
255
255
255
255
255
255
255
255
255
255
255
255
255
255
255
255
255
255
255
255
255
255
255
255
255
255
255
255
255
255
255
255
255
255
255
255
255
255
255
255
255
255
255
255
255
255
255
255
255
255
255
255
255
255
255
255
255
255
255
255
255
255
255
255
255
255
255
255
255
255
255
255
