P2
# CREATOR: GIMP PNM Filter Version 1.1
72 72
255
255
255
255
255
255
255
255
255
255
255
255
255
255
255
255
255
255
255
255
255
255
255
255
255
255
255
255
255
255
255
255
255
255
255
255
255
255
255
255
255
255
255
255
255
255
255
255
255
255
255
255
255
255
255
255
255
255
255
255
255
255
255
255
255
255
255
255
255
255
255
255
255
255
255
255
255
255
255
255
255
255
255
255
255
255
255
255
255
255
254
255
255
255
255
255
255
254
255
255
255
253
254
255
254
255
255
249
248
255
255
255
255
254
254
255
255
254
255
255
251
255
255
253
252
255
255
254
255
255
255
255
255
255
255
255
255
255
255
255
255
255
255
255
255
255
255
255
255
255
255
255
255
255
255
255
255
255
255
255
252
252
255
255
253
245
250
255
255
255
255
248
247
253
254
251
255
253
255
255
255
244
243
254
244
255
255
255
251
252
255
255
255
252
251
255
255
250
247
254
255
255
255
255
255
255
255
255
255
255
255
255
255
255
255
255
255
255
255
255
255
255
255
255
255
255
255
255
255
255
255
255
252
255
255
249
252
255
255
248
246
255
255
254
255
255
255
251
249
255
255
246
255
255
255
255
255
255
255
248
252
255
255
246
255
251
244
249
255
255
255
255
255
255
255
255
255
255
255
255
255
255
255
255
255
255
255
255
255
255
255
255
255
255
255
255
255
255
255
255
255
255
255
255
255
255
255
249
253
255
255
246
255
252
249
252
247
210
136
72
46
70
136
233
255
177
83
66
95
122
162
202
237
255
255
245
241
251
255
255
255
252
253
255
255
255
255
255
255
255
255
255
255
255
255
255
255
255
255
255
255
255
255
255
255
255
255
255
255
255
255
255
255
255
255
255
255
253
255
255
252
240
248
255
247
245
223
164
83
23
13
28
34
15
19
70
98
50
14
38
30
26
23
27
49
103
183
247
255
255
253
254
252
250
251
255
255
255
255
255
255
255
255
255
255
255
255
255
255
255
255
255
255
255
255
255
255
255
255
255
255
255
255
255
255
255
255
255
247
255
255
251
255
255
255
236
199
119
37
10
22
34
32
28
25
37
28
17
24
29
25
28
16
18
25
29
20
15
34
62
178
229
255
255
248
255
255
253
255
255
255
255
255
255
255
255
255
255
255
255
255
255
255
255
255
255
255
255
255
255
255
255
255
255
255
255
255
255
255
255
249
255
255
244
255
255
201
116
13
17
27
33
30
23
23
31
26
25
30
37
34
23
22
32
38
32
29
32
31
25
21
23
22
124
224
255
251
252
255
254
255
255
255
255
255
255
255
255
255
255
255
255
255
255
255
255
255
255
255
255
255
255
255
255
255
255
255
255
255
255
255
255
255
248
246
255
255
192
86
2
32
31
27
24
27
31
31
27
28
29
30
24
22
31
34
23
20
25
28
28
28
31
32
31
29
12
56
166
248
255
250
255
255
255
255
255
255
255
255
255
255
255
255
255
255
255
255
255
255
255
255
255
255
255
255
255
255
255
255
255
255
255
255
255
255
252
255
246
216
60
10
33
28
28
28
28
28
28
28
28
28
28
28
28
28
28
28
28
28
28
28
28
28
28
28
28
24
34
21
18
76
169
236
255
249
254
255
249
255
252
255
255
255
255
255
255
255
255
255
255
255
255
255
255
255
255
255
255
255
255
255
255
255
255
255
255
249
255
254
255
92
25
24
33
28
28
28
28
28
28
28
28
28
28
28
28
28
28
28
28
28
28
28
28
28
28
28
28
31
29
35
37
15
15
107
229
255
247
255
255
247
255
249
255
255
255
255
255
255
255
255
255
255
255
255
255
255
255
255
255
255
255
255
255
255
255
255
255
251
255
246
178
24
24
23
34
28
28
28
28
28
28
28
28
28
28
28
28
28
28
28
28
28
28
28
28
28
28
28
28
29
21
24
38
31
11
30
79
228
255
253
255
249
255
248
255
255
255
255
255
255
255
255
255
255
255
255
255
255
255
255
255
255
255
255
255
255
255
255
255
255
255
237
66
28
34
28
29
28
28
28
28
28
28
28
28
28
28
28
28
28
28
28
28
28
28
28
28
28
28
28
28
20
36
31
18
29
44
33
14
124
251
255
249
255
255
255
255
255
255
255
255
255
255
255
255
255
255
255
255
255
255
255
255
255
255
255
255
255
255
255
255
255
247
193
22
25
21
42
22
28
28
28
28
28
28
28
28
28
28
28
28
28
28
28
28
28
28
28
28
28
28
28
28
22
36
34
21
19
23
25
30
37
168
255
255
255
251
255
251
255
255
255
255
255
255
255
255
255
255
255
255
255
255
255
255
255
255
255
255
255
255
255
255
251
255
96
20
31
22
34
26
28
28
28
28
28
28
28
28
28
28
28
28
28
28
28
28
28
28
28
28
28
28
28
28
33
25
20
30
38
26
18
26
21
60
226
255
251
255
255
255
255
255
255
255
255
255
255
255
255
255
255
255
255
255
255
255
255
255
255
255
255
255
255
255
252
212
27
21
39
32
24
30
28
28
28
28
28
28
28
28
28
28
28
28
28
28
28
28
28
28
28
28
28
28
28
28
33
35
28
23
27
28
29
38
32
15
133
235
255
255
253
255
255
255
255
255
255
255
255
255
255
255
255
255
255
255
255
255
255
255
255
255
255
255
255
255
255
108
24
31
22
19
39
24
28
28
28
28
28
28
28
28
28
28
28
28
28
28
28
28
28
28
28
28
28
28
28
28
23
31
30
27
32
31
25
25
27
27
35
184
255
248
248
254
255
255
255
255
255
255
255
255
255
255
255
255
255
255
255
255
255
244
255
255
255
255
239
255
187
37
27
36
20
34
23
32
28
28
28
28
28
28
28
28
28
28
28
28
28
28
28
28
28
28
28
28
28
28
28
28
28
28
28
28
28
28
28
28
28
32
13
69
231
255
240
255
250
254
255
255
255
253
254
255
255
255
255
255
255
255
255
255
255
254
248
253
250
247
255
225
73
19
31
29
24
40
23
26
28
28
28
28
28
28
28
28
28
28
28
28
28
28
28
28
28
28
28
28
28
28
28
28
28
28
28
28
28
28
28
28
23
35
30
25
93
185
174
124
238
244
250
253
253
253
255
255
255
255
255
255
255
255
255
255
251
255
251
255
247
255
244
122
14
27
33
19
27
36
23
30
28
28
28
28
28
28
28
28
28
28
28
28
28
28
28
28
28
28
28
28
28
28
28
28
28
28
28
28
28
28
28
28
31
16
24
40
7
10
56
163
247
250
255
255
254
253
254
255
255
255
255
255
255
255
255
255
251
255
255
255
251
255
138
30
29
40
26
23
33
28
24
30
28
28
28
28
28
28
28
28
28
28
28
28
28
28
28
28
28
28
28
28
28
28
28
28
28
28
28
28
28
28
28
28
25
37
20
16
42
137
225
255
255
255
255
255
255
253
252
252
255
255
255
255
255
255
255
255
255
252
254
247
255
198
47
21
32
30
21
33
34
26
31
22
28
28
28
28
28
28
28
28
28
28
28
28
28
28
28
28
28
28
28
28
28
28
28
28
28
28
28
28
28
28
28
28
25
32
35
30
29
112
254
254
251
252
254
255
254
254
254
254
255
255
255
255
255
255
255
255
255
251
251
253
251
85
14
36
27
26
29
30
18
25
39
23
28
28
28
28
28
28
28
28
28
28
28
28
28
28
28
28
28
28
28
28
28
28
28
28
28
28
28
28
28
28
28
28
21
30
25
21
26
47
179
246
250
251
252
253
254
255
255
255
255
255
255
255
255
255
255
255
255
255
253
255
175
18
24
28
30
31
34
24
17
26
32
31
28
28
28
28
28
28
28
28
28
28
28
28
28
28
28
28
28
28
28
28
28
28
28
28
28
28
28
28
28
28
28
28
32
37
24
30
40
3
77
255
255
255
255
255
255
255
255
254
255
255
255
255
255
255
255
255
255
255
249
250
79
12
46
18
27
24
28
29
38
33
15
30
28
28
28
28
28
28
28
28
28
28
28
28
28
28
28
28
28
28
28
28
28
28
28
28
28
28
28
28
28
28
28
28
23
25
35
28
20
27
52
199
254
253
253
254
255
255
255
255
255
255
255
255
255
255
255
255
255
248
255
228
51
19
31
23
28
28
28
28
28
28
28
28
19
39
27
27
27
21
32
26
35
25
31
21
25
28
35
27
30
30
29
16
38
29
26
32
28
28
28
28
28
28
28
28
31
20
24
39
26
27
23
153
255
248
254
255
243
255
255
254
255
255
255
255
255
255
255
255
251
255
254
235
54
20
31
26
28
28
28
28
28
28
28
28
26
31
22
31
36
30
35
25
29
19
33
26
41
33
17
26
25
23
16
50
33
21
26
25
28
28
28
28
28
28
28
28
27
29
28
26
25
38
18
82
232
252
248
255
255
255
247
255
255
255
255
255
255
255
255
255
247
255
250
245
71
21
32
29
28
28
28
28
28
28
28
28
33
27
22
32
31
26
32
24
26
31
32
20
100
46
51
45
29
42
28
24
29
24
34
24
28
28
28
28
28
28
28
28
25
33
30
20
28
37
18
31
144
255
255
251
250
254
252
255
255
255
255
255
255
255
255
255
249
255
250
255
102
20
32
28
28
28
28
28
28
28
28
28
29
27
29
30
21
22
33
31
34
27
28
16
152
57
136
89
124
47
27
26
21
33
24
36
28
28
28
28
28
28
28
28
29
28
27
27
33
25
24
38
62
215
252
254
255
255
255
246
255
255
255
255
255
255
255
255
255
254
253
255
126
19
32
26
28
28
28
28
28
28
28
28
24
28
34
28
25
32
34
30
32
21
39
13
158
85
151
168
136
181
30
20
39
25
31
23
28
28
28
28
28
28
28
28
31
24
24
29
33
22
27
53
218
255
252
254
247
248
255
255
255
255
255
255
255
255
255
255
255
248
254
255
118
20
31
25
28
28
28
28
28
28
28
28
29
32
32
24
31
34
18
22
12
68
92
2
146
151
73
248
109
213
157
20
30
23
34
23
28
28
28
28
28
28
28
28
28
28
25
23
29
32
22
52
213
244
244
255
255
255
255
244
255
255
255
255
255
255
255
255
255
249
253
251
80
24
28
26
28
28
28
28
28
28
28
28
30
32
30
22
32
25
13
53
14
108
184
23
99
220
63
232
208
93
242
121
14
29
17
41
28
28
28
28
28
28
28
28
26
30
29
25
25
38
13
69
223
255
255
255
248
255
255
252
255
255
255
255
255
255
255
255
255
254
251
243
44
27
25
28
28
28
28
28
28
28
28
28
23
29
31
24
33
21
30
114
43
91
255
77
27
251
146
147
255
178
140
206
70
20
38
21
28
28
28
28
28
28
28
28
26
29
31
33
24
35
8
101
252
255
245
252
255
255
240
255
255
255
255
255
255
255
255
255
255
250
255
191
43
30
25
23
26
23
38
22
29
42
19
29
26
37
23
26
33
24
10
199
146
128
248
169
34
193
209
153
255
255
204
196
176
32
26
30
25
27
28
21
23
27
21
31
27
28
24
22
33
34
3
98
239
255
249
251
255
254
248
255
255
255
255
255
255
255
255
255
251
254
255
148
20
25
27
38
31
28
30
27
18
22
33
34
23
27
27
27
32
42
29
123
234
217
255
251
86
88
255
214
241
202
166
139
120
42
37
25
33
40
10
45
73
19
42
18
28
17
33
44
20
33
29
44
212
253
255
251
255
255
255
255
255
255
255
255
255
255
255
255
255
246
255
137
30
27
17
37
26
29
14
38
46
23
28
24
39
25
26
13
0
17
23
31
73
163
230
255
214
79
186
255
177
48
7
0
10
9
18
21
6
17
18
56
217
58
34
29
31
33
26
38
23
23
39
28
190
246
255
249
251
253
255
253
255
255
255
255
255
255
255
255
255
244
254
153
39
32
25
26
30
31
24
25
19
46
74
29
17
15
97
178
166
85
50
25
8
11
82
215
255
230
198
244
223
153
179
192
200
194
189
196
197
201
187
62
188
109
18
35
27
35
19
29
22
31
126
157
205
250
255
251
250
252
255
250
255
255
255
255
255
255
255
255
252
255
252
180
30
19
38
27
21
22
41
19
27
169
255
194
144
195
249
254
255
243
238
181
132
109
146
242
243
255
255
255
254
255
255
248
252
255
255
255
253
248
255
171
133
163
4
27
30
22
30
31
13
62
227
255
241
255
255
255
255
255
255
253
255
255
255
255
255
255
255
255
255
255
255
237
81
21
24
28
31
34
19
31
128
235
255
251
255
255
255
250
255
248
255
255
252
255
255
250
255
255
243
254
251
255
251
241
255
255
251
241
255
244
255
255
204
202
30
36
27
33
35
21
90
160
254
250
255
255
247
255
255
253
255
255
255
255
255
255
255
255
255
255
255
249
255
255
194
119
48
20
28
35
5
102
255
255
239
255
252
251
255
248
253
255
255
250
255
243
255
245
248
255
255
255
249
252
254
255
255
245
247
255
241
255
255
246
255
243
98
7
22
38
29
12
183
255
255
253
255
254
247
255
254
248
255
254
255
255
255
255
255
255
255
255
252
255
255
243
255
255
119
13
32
29
34
166
255
247
255
245
255
243
255
255
251
251
252
255
255
255
248
255
255
247
255
255
255
247
255
255
254
255
253
254
255
255
255
252
252
244
153
30
40
22
29
8
170
250
251
255
255
255
255
255
254
248
255
255
255
255
255
255
255
255
255
255
250
255
255
250
255
250
184
97
21
26
32
165
253
255
230
255
255
255
255
255
255
255
255
255
255
255
255
255
255
255
255
255
255
255
255
255
255
255
255
255
255
255
255
246
255
255
203
47
17
38
41
72
196
247
251
255
255
255
255
255
255
255
255
255
255
255
255
255
255
255
255
255
255
255
255
254
252
255
239
205
60
62
36
156
255
248
255
244
255
255
255
255
255
255
255
255
255
255
255
255
255
255
255
255
255
255
255
255
255
255
255
255
255
255
255
255
250
251
217
79
28
14
109
224
254
255
252
251
255
255
255
255
255
255
255
255
255
255
255
255
255
255
255
255
252
252
255
255
252
253
255
255
170
158
18
146
255
243
255
252
255
255
255
255
255
255
255
255
255
255
255
255
255
255
255
255
255
255
255
255
255
255
255
255
250
255
252
255
248
255
196
30
24
12
157
255
236
255
249
249
255
255
255
255
255
255
255
255
255
255
255
255
255
255
255
255
255
249
254
255
254
251
253
251
255
248
52
108
254
255
246
255
255
255
255
255
255
255
255
255
255
255
255
255
255
255
255
255
255
255
255
255
255
255
255
255
254
255
253
253
254
255
147
16
103
121
235
255
255
255
255
255
255
255
255
255
255
255
255
255
255
255
255
255
255
255
255
255
255
255
254
253
252
255
255
252
255
255
159
86
248
255
255
248
255
255
255
255
255
255
255
255
255
255
255
255
255
255
255
255
255
255
255
255
255
255
255
255
255
250
255
255
255
232
137
140
225
233
255
255
255
249
252
255
255
255
255
255
255
255
255
255
255
255
255
255
255
255
255
255
251
254
255
255
250
255
255
252
255
248
233
154
222
255
255
252
255
255
255
255
255
255
255
255
255
255
255
255
255
255
255
255
255
255
255
255
255
255
255
255
254
250
255
250
255
240
188
245
255
255
243
250
241
255
255
251
255
255
255
255
255
255
255
255
255
255
255
255
255
255
255
255
248
251
255
255
252
252
254
247
255
254
247
238
222
250
249
255
255
255
255
255
255
255
255
255
255
255
255
255
255
255
255
255
255
255
255
255
255
255
255
255
248
255
255
244
255
255
245
254
251
249
255
255
255
255
239
255
255
255
255
255
255
255
255
255
255
255
255
255
255
255
255
255
255
253
252
255
253
255
255
255
246
255
255
255
255
251
255
250
255
255
255
255
255
255
255
255
255
255
255
255
255
255
255
255
255
255
255
255
255
255
255
255
255
255
255
255
255
241
255
250
255
221
240
224
211
139
129
252
255
255
255
255
255
255
255
255
255
255
255
255
255
255
255
255
255
255
255
255
255
255
255
255
254
255
248
252
255
255
252
248
255
249
254
250
255
249
254
254
255
255
251
255
255
250
255
255
250
255
255
255
252
251
255
250
255
250
255
255
245
239
255
253
120
65
75
77
33
2
121
253
255
255
255
255
255
255
255
255
255
255
255
255
255
255
255
255
255
255
255
255
255
255
255
255
251
255
251
255
248
242
255
255
248
255
255
247
255
255
250
255
255
254
253
251
246
255
255
240
254
247
246
254
255
255
255
255
253
251
253
255
246
152
121
115
23
24
16
24
31
32
78
205
255
255
255
255
255
255
255
255
255
255
255
255
255
255
255
255
255
255
255
255
255
255
255
255
255
243
135
210
163
238
251
246
255
246
251
255
250
254
255
248
248
247
255
255
230
255
245
226
213
254
255
255
255
253
241
254
253
255
252
251
247
88
21
30
33
26
30
30
19
13
94
253
255
255
255
255
255
255
255
255
255
255
255
255
255
255
255
255
255
255
255
255
255
255
255
255
246
107
13
34
33
203
255
255
242
255
255
245
255
251
247
255
224
154
77
38
76
203
130
4
30
40
98
181
241
255
250
255
251
255
255
247
243
75
20
30
31
30
30
29
110
133
202
252
255
255
255
255
255
255
255
255
255
255
255
255
255
255
255
255
255
255
255
255
255
255
255
255
212
47
27
26
1
175
251
245
255
244
255
249
252
252
231
139
37
14
21
29
21
89
57
23
41
12
25
31
72
193
255
237
253
252
255
255
224
54
27
29
12
45
26
88
248
251
255
255
255
255
255
255
255
255
255
255
255
255
255
255
255
255
255
255
255
255
255
255
255
255
255
255
253
199
31
43
16
87
242
255
255
249
251
252
252
172
80
12
26
33
25
13
57
171
122
9
22
20
40
30
14
29
119
255
255
246
251
255
188
20
22
29
35
30
5
138
255
255
240
240
255
255
255
255
255
255
255
255
255
255
255
255
255
255
255
255
255
255
255
255
255
255
255
255
246
237
17
16
62
9
223
251
251
242
255
255
131
34
10
27
19
40
65
111
188
255
238
158
79
58
32
12
28
16
25
133
255
251
252
255
158
9
27
35
29
31
14
42
71
198
255
255
255
255
255
255
255
255
255
255
255
255
255
255
255
255
255
255
255
255
255
255
255
255
255
255
255
167
27
32
13
27
186
255
247
255
240
188
30
11
49
130
210
223
238
255
255
251
255
255
253
218
242
194
84
28
18
42
222
253
255
250
146
18
33
26
24
30
36
32
110
248
251
248
255
255
255
255
255
255
255
255
255
255
255
255
255
255
255
255
255
255
255
255
255
255
255
255
253
169
141
114
16
24
191
250
254
255
255
84
27
22
184
250
247
255
255
250
255
254
249
255
255
249
255
255
174
24
38
21
166
246
239
255
210
20
39
28
32
25
28
126
232
255
255
254
255
255
255
255
255
255
255
255
255
255
255
255
255
255
255
255
255
255
255
255
255
255
255
255
255
247
240
145
177
79
190
255
252
248
240
61
11
117
242
255
255
238
255
255
245
255
249
250
251
255
255
247
235
72
11
30
128
255
255
249
244
91
15
24
37
25
14
77
184
242
255
255
255
255
255
255
255
255
255
255
255
255
255
255
255
255
255
255
255
255
255
255
255
255
255
255
252
255
255
214
255
190
237
255
254
255
253
40
25
185
255
255
249
255
240
221
248
255
247
253
198
237
250
255
254
137
19
11
138
254
255
247
255
155
11
47
26
5
78
194
255
255
255
249
255
255
255
255
255
255
255
255
255
255
255
255
255
255
255
255
255
255
255
255
255
255
255
255
255
245
244
255
254
247
255
245
245
254
210
30
125
249
255
249
255
255
127
39
72
103
100
90
39
189
242
254
240
247
124
29
176
252
252
249
247
218
51
14
42
7
132
254
250
242
253
255
255
255
255
255
255
255
255
255
255
255
255
255
255
255
255
255
255
255
255
255
255
255
255
255
254
255
255
248
255
246
255
255
255
255
218
136
228
255
247
246
243
249
204
86
14
17
21
32
122
252
255
255
255
255
215
161
244
255
237
255
255
247
119
63
40
74
196
255
247
255
255
253
255
255
255
255
255
255
255
255
255
255
255
255
255
255
255
255
255
255
255
255
255
255
255
255
247
255
254
244
255
255
255
255
252
255
250
255
255
252
248
255
255
255
255
126
18
24
47
176
249
249
251
251
254
239
255
247
198
255
240
255
255
252
193
173
193
247
255
247
251
255
245
253
255
255
255
255
255
255
255
255
255
255
255
255
255
255
255
255
255
255
255
255
255
255
255
255
255
255
248
255
250
255
248
241
255
255
245
255
244
255
255
251
219
180
149
51
22
31
22
125
201
188
238
255
253
255
244
130
122
255
255
246
247
255
244
204
241
255
252
247
255
255
253
255
255
255
255
255
255
255
255
255
255
255
255
255
255
255
255
255
255
255
255
255
255
255
255
255
250
255
255
247
255
255
254
255
248
255
221
140
113
105
100
92
61
31
19
26
26
29
30
15
28
29
93
198
239
255
133
48
236
255
247
255
255
246
255
255
255
250
247
255
255
248
255
245
255
255
255
255
255
255
255
255
255
255
255
255
255
255
255
255
255
255
255
255
255
255
255
255
255
255
255
255
255
255
255
255
251
255
196
21
8
15
12
17
23
29
34
32
29
27
30
32
31
24
13
27
117
112
21
157
255
255
255
255
255
255
255
255
255
255
255
255
255
255
255
255
255
255
255
255
255
255
255
255
255
255
255
255
255
255
255
255
255
255
255
255
255
255
255
255
255
255
255
255
255
255
255
255
255
244
251
72
30
36
22
29
27
24
23
26
32
33
27
21
21
38
38
20
37
6
47
236
255
255
255
255
255
255
255
255
255
255
255
255
255
255
255
255
255
255
255
255
255
255
255
255
255
255
255
255
255
255
255
255
255
255
255
255
255
255
255
255
255
255
255
255
255
255
255
255
255
255
255
199
16
26
49
30
38
37
34
27
22
22
30
38
30
21
19
21
31
23
134
255
255
255
255
255
255
255
255
255
255
255
255
255
255
255
255
255
255
255
255
255
255
255
255
255
255
255
255
255
255
255
255
255
255
255
255
255
255
255
255
255
255
255
255
255
255
255
255
255
255
255
240
253
156
22
1
34
25
22
23
30
35
32
24
18
32
26
51
31
2
104
255
247
255
255
255
255
255
255
255
255
255
255
255
255
255
255
255
255
255
255
255
255
255
255
255
255
255
255
255
255
255
255
255
255
255
255
255
255
255
255
255
255
255
255
255
255
255
255
255
255
250
251
255
255
250
160
47
23
27
28
31
33
30
28
33
42
26
27
5
47
152
243
252
252
255
255
255
255
255
255
255
255
255
255
255
255
255
255
255
255
255
255
255
255
255
255
255
255
255
255
255
255
255
255
255
255
255
255
255
255
255
255
255
255
255
255
255
255
255
255
255
255
251
255
255
255
236
255
212
111
36
28
22
22
20
16
18
24
28
21
100
216
249
255
248
255
255
255
255
255
255
255
255
255
255
255
255
255
255
255
255
255
255
255
255
255
255
255
255
255
255
255
255
255
255
255
255
255
255
255
255
255
255
255
255
255
255
255
255
255
255
255
255
255
255
255
240
239
255
245
255
254
206
143
79
65
91
120
133
136
125
173
243
255
248
253
254
252
255
255
255
255
255
255
255
255
255
255
255
255
255
255
255
255
255
255
255
255
255
255
255
255
255
