P2
# CREATOR: GIMP PNM Filter Version 1.1
72 72
255
255
255
255
255
255
255
255
255
255
255
255
255
255
255
255
255
255
255
255
255
255
255
255
255
255
255
255
255
255
255
255
255
255
250
249
249
255
255
255
255
255
254
252
251
255
255
255
255
255
255
255
255
255
255
255
255
255
255
255
255
255
255
255
255
255
255
255
255
255
255
255
255
255
255
255
255
255
255
255
255
255
255
255
255
255
255
255
255
255
255
255
255
255
255
255
255
255
255
255
255
250
253
255
255
254
255
255
255
255
254
252
251
254
255
255
253
255
255
255
255
255
255
255
255
255
255
255
255
255
255
255
255
255
255
255
255
255
255
255
255
255
255
255
255
255
255
255
255
255
255
255
255
255
255
255
255
255
255
255
255
255
255
255
255
255
255
255
255
255
255
255
255
255
255
252
252
255
255
255
255
255
255
252
250
253
255
255
255
255
255
255
255
255
255
255
255
255
255
255
255
255
255
255
255
255
255
255
255
255
255
255
255
255
255
255
255
255
255
255
255
255
255
255
255
255
255
255
255
255
255
255
255
255
255
255
255
255
255
255
255
255
255
255
255
246
253
255
255
251
249
253
255
245
253
255
255
252
250
249
247
255
255
255
255
255
255
255
255
255
255
255
255
255
255
255
255
255
255
255
255
255
255
255
255
255
255
255
255
255
255
255
255
255
255
255
255
255
255
255
255
255
255
255
255
255
255
255
255
255
255
255
255
255
255
255
255
255
242
197
128
68
48
71
100
187
212
239
252
254
255
255
255
255
255
255
255
255
255
255
255
255
255
255
255
255
255
255
255
255
255
255
255
255
255
255
255
255
255
255
255
255
255
255
255
255
255
255
255
255
255
255
255
255
250
254
255
254
255
255
247
255
255
255
250
250
255
252
245
177
93
20
12
27
26
21
26
11
30
67
108
138
164
196
224
252
255
255
252
254
254
255
255
253
255
255
255
246
253
255
251
255
255
255
255
255
255
255
255
255
255
255
255
255
255
255
255
255
255
255
255
255
255
255
255
253
255
255
254
252
251
254
255
247
247
248
249
238
200
140
92
32
21
20
31
34
25
22
29
33
25
17
12
8
13
35
59
144
209
255
247
254
255
244
255
251
253
250
255
255
255
252
251
255
255
255
255
255
255
255
255
255
255
255
255
255
255
255
255
255
255
255
255
255
255
255
255
254
255
251
248
255
255
246
254
255
248
205
139
68
22
11
20
26
31
32
27
24
27
30
31
33
33
36
39
33
23
22
27
6
66
125
212
255
255
255
251
255
255
254
249
255
255
246
255
255
255
255
255
255
255
255
255
255
255
255
255
255
255
255
255
255
255
255
255
255
255
255
255
252
254
253
255
255
255
248
241
153
94
30
6
15
29
35
36
32
32
28
24
28
35
30
20
18
18
24
31
33
30
30
32
44
3
19
35
100
217
255
255
251
255
255
249
247
255
255
255
255
255
255
255
255
255
255
255
255
255
255
255
255
255
255
255
255
255
255
255
255
255
255
255
255
255
254
245
246
242
168
60
28
21
21
30
34
29
26
27
18
22
28
29
27
26
26
27
37
31
26
25
25
24
26
29
12
44
37
34
18
44
166
248
252
245
255
255
250
255
255
251
255
255
255
255
255
255
255
255
255
255
255
255
255
255
255
255
255
255
255
255
255
255
255
255
255
247
255
252
157
49
12
23
23
25
30
35
34
28
24
24
38
34
30
28
24
22
27
35
25
25
28
32
33
31
27
25
38
24
20
24
41
16
35
172
255
255
251
255
255
248
255
249
255
255
255
255
255
255
255
255
255
255
255
255
255
255
255
255
255
255
255
255
255
255
255
255
249
255
215
94
27
21
31
43
30
31
28
23
22
26
29
29
23
21
22
28
34
34
28
22
29
27
24
21
22
24
27
28
23
44
18
21
41
21
21
40
207
255
252
252
255
244
255
254
255
255
255
255
255
255
255
255
255
255
255
255
255
255
255
255
255
255
255
255
255
255
255
255
255
240
111
3
22
43
21
21
25
29
28
24
26
32
31
25
28
33
32
24
23
28
31
29
25
28
30
31
30
29
27
25
34
17
34
34
15
30
38
15
98
249
255
245
255
250
255
252
255
255
255
255
255
255
255
255
255
255
255
255
255
255
255
255
255
253
255
255
255
255
250
255
255
162
26
26
35
24
27
36
28
28
28
28
28
28
28
28
28
28
28
28
28
28
28
28
28
28
28
28
28
28
28
28
28
28
28
28
28
28
28
28
25
117
255
254
251
254
255
253
255
255
255
255
255
255
255
255
255
255
255
255
255
255
255
255
254
255
254
251
255
255
252
254
246
100
15
25
28
28
24
28
28
28
28
28
28
28
28
28
28
28
28
28
28
28
28
28
28
28
28
28
28
28
28
28
28
28
28
28
28
28
28
28
30
37
144
253
255
253
255
248
255
255
255
255
255
255
255
255
255
255
255
255
255
255
255
255
254
255
255
252
255
255
254
253
239
50
17
31
25
34
27
25
28
28
28
28
28
28
28
28
28
28
28
28
28
28
28
28
28
28
28
28
28
28
28
28
28
28
28
28
28
28
28
28
29
18
40
186
255
254
252
253
255
255
255
255
255
255
255
255
255
255
255
255
255
255
255
255
253
255
255
255
255
252
253
253
211
38
27
35
26
30
29
27
28
28
28
28
28
28
28
28
28
28
28
28
28
28
28
28
28
28
28
28
28
28
28
28
28
28
28
28
28
28
28
28
25
39
17
88
237
254
251
255
255
255
255
255
255
255
255
255
255
255
255
255
255
255
255
255
253
255
250
255
253
247
255
250
134
36
25
29
29
20
28
27
28
28
28
28
28
28
28
28
28
28
28
28
28
28
28
28
28
28
28
28
28
28
28
28
28
28
28
28
28
28
28
28
26
24
33
32
215
252
255
253
255
255
255
255
255
255
255
255
255
255
255
255
255
255
255
255
255
253
248
255
251
253
255
212
50
28
19
26
34
22
28
30
28
28
28
28
28
28
28
28
28
28
28
28
28
28
28
28
28
28
28
28
28
28
28
28
28
28
28
28
28
28
28
28
30
20
38
16
226
255
243
255
255
255
255
255
255
255
255
255
255
255
255
255
255
255
255
255
255
255
252
255
251
255
235
115
20
26
22
29
30
31
26
32
28
28
28
28
28
28
28
28
28
28
28
28
28
28
28
28
28
28
28
28
28
28
28
28
28
28
28
28
28
28
28
28
30
35
31
15
198
255
233
255
255
255
255
255
255
255
255
255
255
255
255
255
255
255
255
255
254
253
253
255
248
254
197
17
29
29
28
31
20
33
19
29
28
28
28
28
28
28
28
28
28
28
28
28
28
28
28
28
28
28
28
28
28
28
28
28
28
28
28
28
28
28
28
28
27
28
25
24
123
255
255
252
255
255
255
255
255
255
255
255
255
255
255
255
255
255
255
255
253
255
254
246
253
252
67
22
28
28
28
28
28
28
28
28
28
28
28
28
28
28
28
28
28
28
28
28
28
28
28
28
28
29
30
30
28
27
27
28
23
38
18
29
31
28
23
29
30
22
29
28
32
231
255
255
255
255
255
255
255
255
255
255
255
255
255
255
255
255
255
255
253
251
255
255
255
164
29
31
28
28
28
28
28
28
28
28
28
28
28
28
28
28
28
28
28
28
28
28
28
28
28
28
28
28
29
29
28
28
28
29
20
31
26
29
28
26
24
31
27
29
26
28
26
157
255
251
255
255
255
255
255
255
255
255
255
255
255
255
255
255
255
255
255
247
255
255
250
75
8
38
28
28
28
28
28
28
28
28
28
28
28
28
28
28
28
28
28
28
28
28
28
28
28
28
28
28
28
27
27
28
29
29
30
27
31
25
27
29
27
29
24
34
25
28
23
69
234
254
255
255
255
255
255
255
255
255
255
255
255
255
255
255
255
255
255
253
253
255
192
34
21
32
28
28
28
28
28
28
28
28
28
28
28
28
28
28
28
28
28
28
28
28
28
28
28
28
28
27
26
26
27
28
29
29
36
24
30
21
28
35
28
25
25
29
28
28
27
22
174
255
254
254
255
255
255
255
255
255
255
255
255
255
255
255
255
255
255
255
246
255
117
22
33
23
28
28
28
28
28
28
28
28
28
28
28
28
28
28
28
28
28
28
28
28
28
28
28
28
29
27
26
26
28
29
28
27
20
25
28
25
28
32
25
25
31
21
31
28
31
19
90
249
253
253
254
255
255
255
255
255
255
255
255
255
255
255
255
255
252
255
251
255
69
18
32
26
28
28
28
28
28
28
28
28
28
28
28
28
28
28
28
28
28
28
28
28
28
28
28
28
29
27
26
27
29
29
26
23
20
49
29
32
26
26
22
31
34
19
32
29
29
29
27
195
251
252
254
255
255
255
255
254
255
255
255
255
255
255
255
255
254
255
255
218
50
23
29
30
28
28
28
28
28
28
28
28
28
28
28
28
28
28
28
28
28
28
28
28
28
28
28
28
29
27
26
28
30
29
24
20
81
108
30
31
25
30
24
33
31
25
27
33
23
34
14
123
250
252
254
255
255
255
255
254
255
255
255
255
255
255
255
255
253
255
255
166
41
29
28
27
28
28
28
28
28
28
28
28
28
28
28
28
28
28
28
28
28
28
28
28
28
28
28
28
29
27
27
29
31
29
23
18
158
166
29
25
25
39
27
29
25
32
23
37
20
32
29
74
250
251
254
255
255
255
255
254
255
255
255
255
255
255
255
255
255
246
255
143
31
30
23
30
31
24
28
34
19
23
39
26
35
18
33
33
22
27
32
27
26
31
26
31
26
29
36
18
35
22
21
28
35
43
0
123
239
104
4
35
37
28
25
31
31
20
22
36
24
31
25
55
209
255
250
255
255
255
255
255
255
255
255
255
255
255
255
255
255
247
255
139
25
29
25
30
34
24
28
33
38
21
27
28
28
32
19
19
27
38
30
24
25
31
32
26
37
27
24
37
26
29
35
31
0
23
107
254
184
67
87
23
24
18
43
26
23
35
32
34
23
30
27
46
206
255
250
255
255
255
255
255
255
255
255
255
255
255
255
255
255
247
254
138
20
28
29
30
26
32
35
21
34
28
27
23
20
30
25
48
13
11
23
18
21
21
25
3
22
24
33
31
22
35
21
22
50
145
248
255
109
177
116
6
32
34
26
23
22
38
24
27
27
28
29
41
202
255
249
255
255
255
255
255
255
255
255
255
255
255
255
255
255
248
253
146
20
29
32
28
21
28
36
29
21
34
30
25
51
153
49
0
89
191
182
164
157
171
175
194
207
62
1
27
28
37
14
69
193
243
253
210
141
240
91
27
26
27
25
44
31
36
15
25
37
27
26
38
198
255
249
255
255
255
254
254
255
255
255
255
255
255
255
255
255
249
255
163
28
30
33
26
36
24
27
35
4
42
44
47
203
232
131
163
254
255
236
255
255
250
252
255
204
66
66
45
10
20
150
249
255
254
255
184
223
255
110
0
27
31
19
7
28
35
29
28
37
28
27
31
196
255
249
255
255
254
254
254
255
255
255
255
255
255
255
255
255
249
255
183
37
29
31
26
22
26
27
25
48
176
215
214
247
255
250
255
227
226
232
216
221
236
251
254
234
225
255
165
96
165
255
255
227
152
102
69
127
162
92
97
199
194
143
62
19
22
40
24
25
31
31
30
196
255
250
255
255
254
254
255
255
255
255
255
255
255
255
255
255
248
255
199
43
25
29
28
28
39
33
9
103
239
255
251
255
233
160
93
60
62
52
40
40
77
68
107
226
255
255
255
255
247
246
243
217
145
114
125
98
53
14
118
172
200
225
231
70
16
34
20
23
32
28
37
197
255
251
255
255
253
254
255
255
255
255
255
255
255
255
255
255
247
255
207
45
21
27
29
28
20
30
44
198
255
249
250
161
64
49
111
157
161
161
172
175
146
156
169
210
255
246
252
245
255
255
255
255
249
255
250
255
240
171
52
34
64
47
190
156
29
27
24
33
30
17
41
199
255
252
255
254
253
254
255
255
255
255
255
255
255
255
255
250
255
247
237
60
14
36
27
25
29
17
87
255
253
255
124
19
122
225
255
255
254
255
255
255
255
255
255
255
255
255
255
255
255
255
255
255
255
255
255
253
255
253
241
242
232
180
119
168
23
27
33
18
34
24
46
208
243
255
254
252
255
254
254
255
255
255
255
255
255
255
255
255
251
255
251
58
31
28
25
28
36
32
139
253
255
196
75
190
232
255
255
252
254
255
250
255
255
255
255
255
255
255
255
255
255
255
255
255
255
255
255
254
255
255
254
255
255
255
244
196
37
23
31
36
27
15
62
226
249
255
253
254
255
254
254
255
255
255
255
255
255
255
255
255
255
253
255
141
12
37
30
27
9
35
200
255
255
234
248
254
255
255
249
249
255
255
253
255
255
255
255
255
255
255
255
255
255
255
255
255
255
255
255
255
255
255
255
254
249
254
255
237
47
29
22
22
33
21
86
246
255
254
252
255
255
253
255
255
255
255
255
255
255
255
255
249
255
241
255
234
45
16
32
44
21
43
196
251
255
251
251
251
253
254
254
255
255
254
253
255
255
255
255
255
255
255
255
255
255
255
255
255
255
255
255
255
250
250
255
255
250
247
251
255
81
28
24
28
36
12
146
255
255
253
253
255
255
251
255
255
255
255
255
255
255
255
255
255
255
251
255
249
173
16
19
11
25
54
208
249
247
255
249
255
255
255
255
254
251
252
255
255
255
255
255
255
255
255
255
255
255
255
255
255
255
255
255
255
255
253
253
255
255
255
255
253
144
9
37
41
17
40
224
255
255
254
255
255
253
250
255
255
255
255
255
255
255
255
255
253
255
255
249
247
255
130
33
39
27
27
197
255
255
254
253
252
250
249
252
255
255
255
254
255
255
255
255
255
255
255
255
255
255
255
255
255
255
255
255
252
255
255
255
249
251
253
251
254
173
2
39
6
33
165
251
251
255
255
255
255
253
250
255
255
255
255
255
255
255
255
255
249
255
255
246
255
255
244
135
25
16
33
138
233
251
255
253
255
255
255
255
255
255
253
247
255
255
255
255
255
255
255
255
255
255
255
255
255
255
255
255
244
255
255
255
255
255
255
255
255
144
12
34
40
140
255
246
251
255
255
252
255
255
253
255
255
255
255
255
255
255
255
255
255
252
254
255
250
255
250
255
153
28
16
86
255
252
255
251
250
255
255
251
249
253
255
255
255
255
255
255
255
255
255
255
255
255
255
255
255
255
255
255
255
255
252
252
254
254
253
253
249
106
17
38
165
255
254
255
253
255
254
249
255
255
255
253
255
255
255
255
255
255
255
255
253
255
255
255
252
255
246
254
249
162
23
17
157
255
238
255
255
255
255
255
255
255
255
255
255
251
252
255
255
255
250
249
252
252
255
255
255
252
247
255
252
255
255
250
251
255
251
255
246
60
0
137
246
255
255
254
255
255
255
255
255
255
255
255
255
255
255
255
255
255
255
255
255
246
250
255
237
254
255
245
255
245
132
14
50
224
255
246
255
255
255
255
255
255
255
255
251
255
255
253
249
253
255
255
255
255
250
252
255
255
255
255
255
253
254
255
255
255
250
252
220
36
41
175
255
253
248
255
255
255
255
255
255
255
255
255
255
255
255
255
255
255
255
255
237
255
255
255
255
255
244
253
251
255
225
82
0
153
255
251
255
255
255
255
255
255
255
255
255
255
255
254
253
253
252
250
250
253
255
255
255
244
255
244
255
249
253
255
255
252
255
255
156
10
64
224
255
248
249
255
255
255
255
255
255
255
255
255
255
255
255
255
255
255
255
255
255
255
254
243
246
255
242
255
249
247
253
173
16
74
242
255
255
255
255
255
255
255
255
255
255
246
247
255
255
255
255
255
255
252
255
253
255
250
255
253
254
251
255
255
248
246
255
248
83
8
83
255
254
248
255
254
255
255
255
255
255
255
255
255
255
255
255
255
255
255
255
255
255
246
254
250
255
250
168
232
255
248
255
211
43
27
230
251
255
255
255
255
255
255
255
255
255
254
253
254
250
246
250
255
255
246
255
241
252
255
255
255
254
254
255
249
247
254
255
197
30
23
154
255
251
252
255
253
255
255
255
255
255
255
255
255
255
255
255
255
255
255
255
255
243
255
255
255
247
159
38
149
253
255
254
227
70
13
198
244
255
255
255
255
255
255
255
255
255
255
255
253
255
255
255
245
252
255
255
255
255
255
242
255
255
254
255
247
255
255
245
117
2
57
238
246
254
255
249
255
255
255
255
255
255
255
255
255
255
255
255
255
255
255
255
255
255
248
255
210
101
41
15
69
217
249
251
240
85
11
140
250
255
255
255
255
255
255
255
255
249
249
252
255
250
246
253
255
252
255
222
251
255
255
250
255
255
251
255
249
255
255
221
57
21
146
255
243
253
255
251
255
255
255
255
255
255
255
255
255
255
255
255
255
255
255
255
255
253
255
221
129
29
12
19
27
184
251
255
235
70
13
98
255
255
255
255
255
255
255
255
255
255
249
248
232
174
129
170
250
254
243
118
177
237
252
255
252
250
248
255
251
253
240
205
37
67
249
255
255
251
255
255
249
255
255
255
255
255
255
255
255
255
255
255
255
255
255
255
255
249
255
242
170
90
71
127
192
251
248
251
178
53
19
49
249
252
255
248
255
255
249
252
210
172
149
105
59
16
12
117
255
255
221
24
24
82
157
205
236
254
254
252
255
252
255
191
35
96
203
245
254
255
249
252
255
255
255
255
255
255
255
255
255
255
255
255
255
255
255
255
255
255
255
255
251
237
236
252
255
255
254
136
63
27
30
24
221
255
255
255
255
244
255
173
47
11
12
6
18
23
16
104
255
255
169
8
7
0
8
52
76
135
234
255
246
242
250
158
44
19
82
252
255
233
255
255
255
255
255
255
255
255
255
255
255
255
255
255
255
255
255
255
255
247
249
253
255
255
255
251
247
250
255
154
9
27
40
25
150
251
246
254
250
252
250
97
0
22
55
119
176
203
217
235
249
253
239
182
183
140
67
20
13
9
129
250
255
255
255
139
11
33
10
154
255
252
255
248
251
255
255
255
255
255
255
255
255
255
255
255
255
255
255
255
255
255
255
255
255
251
249
252
255
254
253
247
82
11
25
38
107
255
245
255
241
255
230
60
25
85
205
255
255
253
250
247
255
240
255
255
251
255
220
119
33
22
80
223
255
250
243
96
3
29
71
195
250
255
255
244
255
255
255
255
255
255
255
255
255
255
255
255
255
255
255
255
255
251
248
247
250
255
255
255
255
255
247
255
210
35
16
13
35
223
244
255
251
249
222
47
75
244
242
255
255
241
253
255
242
255
248
255
247
251
255
244
150
13
61
220
255
255
211
67
64
115
232
249
255
255
239
255
250
255
255
255
255
255
255
255
255
255
255
255
255
255
255
255
255
255
255
255
255
255
255
254
252
249
255
242
255
163
113
110
53
157
255
240
254
252
200
30
183
255
255
252
252
255
255
247
255
252
252
255
255
251
249
255
248
82
63
229
255
255
244
200
239
255
250
255
254
250
255
246
255
255
255
255
255
255
255
255
255
255
255
255
255
255
255
255
255
253
255
255
254
249
248
254
255
255
255
252
245
255
241
255
205
191
255
243
253
255
189
86
255
248
248
255
255
241
251
255
255
255
255
239
252
255
251
243
255
152
51
224
255
250
254
255
255
243
248
253
255
255
255
255
253
255
255
255
255
255
255
255
255
255
255
255
255
255
255
255
255
255
254
254
255
255
255
255
252
255
244
255
250
244
255
254
254
255
249
255
255
248
231
230
254
255
255
255
252
253
255
255
252
245
255
247
255
249
252
255
248
226
95
228
243
255
250
248
255
250
255
254
246
255
255
247
255
255
255
255
255
255
255
255
255
255
255
255
255
255
255
255
255
255
255
255
255
255
255
255
255
255
255
255
255
255
255
255
255
255
255
255
255
255
255
255
255
255
255
255
255
255
255
255
255
255
255
255
255
255
255
255
255
250
244
243
250
255
254
253
254
255
255
255
255
255
255
255
255
255
255
255
255
255
255
255
255
255
255
255
255
255
255
255
255
255
255
255
255
255
255
255
255
255
255
255
255
255
255
255
255
255
255
255
255
255
255
255
255
255
255
255
255
255
255
255
255
255
255
255
255
255
255
255
255
255
250
249
254
255
255
255
255
255
255
255
255
255
255
255
255
255
255
255
255
255
255
255
255
255
255
255
255
255
255
255
255
255
255
255
255
255
255
255
255
255
255
255
255
255
255
255
255
255
255
255
255
255
255
255
255
255
255
255
255
255
255
255
255
255
255
255
255
255
255
255
255
255
255
253
255
255
255
255
254
255
255
255
255
255
255
255
255
255
255
255
255
255
255
255
255
255
255
255
255
255
255
255
255
255
255
255
255
255
255
255
255
255
255
255
255
255
255
255
255
255
255
255
255
255
255
255
255
255
255
255
255
255
255
255
255
255
255
255
255
255
255
255
255
255
255
253
254
255
255
253
252
255
255
255
255
255
255
255
255
255
255
255
255
255
255
255
255
255
255
255
255
255
255
255
255
255
255
255
255
255
255
255
255
255
255
255
255
255
255
255
255
255
255
255
255
255
255
255
255
255
255
255
255
255
255
255
255
255
255
255
255
255
255
255
255
254
254
253
253
254
255
254
253
255
255
255
255
255
255
255
255
255
255
255
255
255
255
255
255
255
255
255
255
255
255
255
255
255
255
255
255
255
255
255
255
255
255
255
255
255
255
255
255
255
255
255
255
255
255
255
255
255
255
255
255
255
255
255
255
255
255
255
255
255
255
255
255
252
255
255
254
254
255
255
255
255
255
255
255
255
255
255
255
255
255
255
255
255
255
255
255
255
255
255
255
255
255
255
255
255
255
255
255
255
255
255
255
255
255
255
255
255
255
255
255
255
255
255
255
255
255
255
255
255
255
255
255
255
255
255
255
255
255
255
255
255
255
255
255
253
255
255
254
253
255
255
255
255
255
255
255
255
255
255
255
255
255
255
255
255
255
255
255
255
255
255
255
255
255
255
255
255
255
255
255
255
255
255
255
255
255
255
255
255
255
255
255
255
255
255
255
255
255
255
255
255
255
255
255
255
255
255
255
255
255
255
255
255
255
255
255
252
255
255
253
252
254
255
252
255
255
255
255
255
255
255
255
255
255
255
255
255
255
255
255
255
255
255
255
255
255
255
255
255
255
255
255
255
255
255
255
255
255
255
255
255
255
255
255
255
255
255
255
255
255
255
255
255
255
255
255
255
255
255
255
255
255
255
255
255
255
255
255
255
255
255
255
255
255
255
255
255
255
255
255
255
255
255
255
255
255
255
255
255
255
255
255
255
255
255
255
255
255
255
255
255
255
255
255
255
255
255
255
255
255
255
255
255
255
255
255
255
255
255
255
255
255
255
255
255
255
255
255
255
255
255
255
255
255
255
255
255
255
255
255
255
255
255
255
255
255
255
255
255
255
255
255
255
255
255
255
255
255
255
255
255
255
255
255
255
255
255
255
255
255
255
255
255
255
255
255
255
255
255
255
255
255
255
255
255
255
255
255
255
255
255
255
255
255
255
255
255
255
255
255
255
255
255
255
255
255
255
255
255
255
255
255
255
255
255
255
255
255
255
255
255
255
255
255
255
255
255
255
255
255
255
255
255
255
255
255
255
255
255
255
