P2
# CREATOR: GIMP PNM Filter Version 1.1
72 72
255
255
255
255
255
255
255
255
255
255
255
255
255
255
255
255
255
255
249
255
255
255
255
255
251
242
253
255
255
255
248
250
254
246
255
252
248
248
246
251
255
250
255
255
255
255
254
253
252
251
255
255
250
249
255
255
254
240
255
255
255
255
255
255
255
255
255
255
255
255
255
255
255
255
255
255
255
255
255
255
255
255
255
255
255
255
255
255
255
255
255
255
255
254
252
255
255
255
255
247
247
255
255
255
255
255
252
247
253
255
255
255
255
248
250
250
250
250
251
254
255
255
243
255
255
255
250
251
255
255
255
255
255
255
255
255
255
255
255
255
255
255
255
255
255
255
255
255
255
255
255
255
255
255
255
255
255
255
255
255
255
255
255
253
250
252
254
252
251
251
242
251
255
254
252
255
245
215
189
213
251
255
253
242
250
255
255
255
255
255
253
251
251
252
255
249
247
253
254
250
254
255
255
255
255
255
255
255
255
255
255
255
255
255
255
255
255
255
255
255
255
255
255
255
255
255
255
255
255
255
255
255
255
255
248
254
255
255
255
251
253
255
255
253
247
251
247
212
133
54
10
56
133
187
192
173
158
149
146
149
157
168
186
211
236
253
253
255
255
250
252
255
255
238
255
255
255
255
255
255
255
255
255
255
255
255
255
255
255
255
255
255
255
255
255
255
255
255
255
255
255
255
255
255
255
255
253
255
255
249
252
255
249
228
173
161
189
210
145
43
5
25
32
22
26
35
30
21
15
9
12
11
11
14
25
46
71
88
144
207
255
255
251
255
255
255
255
255
255
255
255
255
255
255
255
255
255
255
255
255
255
255
255
255
255
255
255
255
255
255
255
255
255
255
255
255
255
255
253
255
248
247
255
248
156
52
30
37
42
30
17
24
35
31
33
22
24
33
30
28
32
34
33
35
36
32
26
20
19
20
23
53
134
230
255
254
244
255
255
255
255
255
255
255
255
255
255
255
255
255
255
255
255
255
255
255
255
255
255
255
255
255
255
248
249
255
255
255
255
255
253
255
254
248
251
203
19
26
28
28
28
28
28
28
28
28
28
28
28
28
28
28
28
28
28
28
28
28
28
28
28
28
21
35
12
88
227
255
253
254
253
250
255
248
247
255
251
253
255
255
255
255
255
255
255
255
255
255
255
255
255
255
255
255
255
255
255
254
249
248
252
255
253
255
251
255
233
49
35
29
28
28
28
28
28
28
28
28
28
28
28
28
28
28
28
28
28
28
28
28
28
28
28
28
37
19
31
21
93
233
255
240
255
250
255
254
250
255
255
248
255
255
255
255
255
255
255
255
255
255
255
255
255
255
255
255
251
255
255
253
254
254
253
255
255
241
252
255
139
18
38
19
28
28
28
28
28
28
28
28
28
28
28
28
28
28
28
28
28
28
28
28
28
28
28
28
33
22
28
20
19
124
251
255
255
250
252
255
255
249
255
254
255
255
255
255
255
255
255
255
255
255
255
255
255
255
255
255
254
255
253
254
255
255
253
254
252
255
255
186
31
38
20
35
28
28
28
28
28
28
28
28
28
28
28
28
28
28
28
28
28
28
28
28
28
28
28
28
24
30
25
45
27
32
149
242
255
255
246
255
255
245
255
255
255
255
255
255
255
255
255
255
255
255
255
255
255
255
255
255
255
254
251
255
255
253
249
254
255
251
172
58
23
22
22
33
28
28
28
28
28
28
28
28
28
28
28
28
28
28
28
28
28
28
28
28
28
28
28
28
31
23
36
25
24
24
33
106
206
255
255
243
255
255
255
255
255
255
255
255
255
255
255
255
255
255
255
255
255
255
255
255
255
251
255
255
250
250
255
255
229
119
40
15
38
27
37
21
28
28
28
28
28
28
28
28
28
28
28
28
28
28
28
28
28
28
28
28
28
28
28
28
29
25
29
23
22
28
24
20
72
193
255
255
253
254
255
252
255
255
255
255
255
255
255
255
255
255
255
255
255
255
255
255
255
248
255
255
247
255
255
227
98
17
14
43
19
28
32
35
28
28
28
28
28
28
28
28
28
28
28
28
28
28
28
28
28
28
28
28
28
28
28
28
22
34
20
37
31
21
47
25
0
79
212
255
252
249
255
252
255
255
255
255
255
255
255
255
255
255
255
255
255
255
255
255
255
247
255
255
246
255
245
169
1
43
26
19
34
27
22
23
28
28
28
28
28
28
28
28
28
28
28
28
28
28
28
28
28
28
28
28
28
28
28
28
27
32
36
18
26
35
18
32
40
6
129
250
253
254
255
252
255
255
255
255
255
255
255
255
255
255
255
255
255
255
255
255
255
242
255
255
253
249
249
85
28
28
28
28
28
28
28
28
28
28
28
28
28
28
28
28
28
28
28
28
28
28
28
28
28
28
28
28
28
28
28
28
28
28
28
28
28
28
28
28
23
39
34
202
255
250
255
255
255
255
255
255
255
255
255
255
255
255
255
255
255
255
255
255
254
255
251
252
255
251
249
53
28
28
28
28
28
28
28
28
28
28
28
28
28
28
28
28
28
28
28
28
28
28
28
28
28
28
28
28
28
28
28
28
28
28
28
28
28
28
28
28
29
33
11
127
247
254
255
253
255
255
255
255
255
255
255
255
255
255
255
255
255
255
255
255
252
255
254
249
255
255
203
27
28
28
28
28
28
28
28
28
28
28
28
28
28
28
28
28
28
28
28
28
28
28
28
28
28
28
28
28
28
28
28
28
28
28
28
28
28
28
28
28
33
35
9
54
224
255
253
255
255
255
255
255
255
255
255
255
255
255
255
255
255
255
255
255
253
255
255
253
250
255
106
25
28
28
28
28
28
28
28
28
28
28
28
28
28
28
28
28
28
28
28
28
28
28
28
28
28
28
28
28
28
28
28
28
28
28
28
28
28
28
28
28
27
36
29
24
188
255
250
255
255
255
255
255
255
255
255
255
255
255
255
255
255
255
255
255
251
253
255
252
255
176
28
29
28
28
28
28
28
28
28
28
28
28
28
28
28
28
28
28
28
28
28
28
28
28
28
28
28
28
28
28
28
28
28
28
28
28
28
28
28
28
28
28
23
28
38
17
147
253
249
250
255
255
255
255
255
255
255
255
255
255
255
255
255
255
255
255
252
255
252
252
255
78
15
31
28
28
28
28
28
28
28
28
28
28
28
28
28
28
28
28
28
28
28
28
28
28
28
28
28
28
28
28
28
28
28
28
28
28
28
28
28
28
28
28
31
21
33
14
129
255
255
250
255
255
255
255
255
255
255
255
255
255
255
255
255
255
255
255
253
255
252
254
208
29
28
31
28
28
28
28
28
28
28
28
28
28
28
28
28
28
28
28
28
28
28
28
28
28
28
28
28
28
28
28
28
28
28
28
28
28
28
28
28
28
28
28
34
23
33
12
137
255
255
255
255
255
255
255
255
255
255
255
255
255
255
255
255
255
255
255
250
255
250
254
144
28
28
27
28
28
28
28
28
28
28
28
28
28
28
28
28
28
28
28
28
28
28
28
28
28
28
28
28
28
28
28
28
28
28
28
28
28
28
28
28
28
28
28
27
25
38
11
148
247
247
255
255
255
255
255
255
255
255
255
255
255
255
255
255
255
255
255
252
255
254
255
102
16
34
25
28
28
28
28
28
28
28
28
27
25
30
24
22
33
16
35
28
25
30
30
28
29
30
28
26
27
31
35
32
26
25
29
28
28
28
28
28
29
29
29
24
30
38
3
139
255
241
255
255
255
255
255
255
255
255
255
255
255
255
255
255
255
255
255
255
252
249
255
105
11
27
29
28
28
28
28
28
28
28
28
32
25
27
36
25
36
23
21
24
33
35
17
16
41
15
27
36
26
19
22
28
30
30
30
28
28
28
28
28
28
28
28
34
23
31
17
108
255
252
249
255
255
255
255
255
255
255
255
255
255
255
255
255
255
255
255
255
255
251
249
96
13
30
31
28
28
28
28
28
28
28
28
41
21
24
22
44
10
39
60
37
17
23
44
29
19
40
30
33
31
30
30
28
24
22
23
28
28
28
28
28
28
28
28
30
26
32
21
46
164
255
255
255
255
255
255
255
255
255
255
255
255
255
255
255
255
255
255
252
255
255
228
74
18
37
26
28
28
28
28
28
28
28
28
21
23
41
24
16
36
147
177
45
35
27
14
42
21
34
21
22
26
31
33
32
30
30
32
28
28
28
28
28
27
27
27
22
32
34
21
18
47
225
255
255
255
255
255
255
255
255
255
255
255
255
255
255
255
255
255
249
255
255
222
69
18
33
22
28
28
28
28
28
28
28
28
35
27
23
34
68
204
255
135
129
57
28
20
32
33
22
27
30
27
23
22
24
26
25
22
28
27
27
27
27
27
27
27
30
24
28
30
32
18
150
249
255
255
255
255
255
255
255
255
255
255
255
255
255
255
255
255
255
251
255
238
85
20
26
29
28
28
28
28
28
28
28
28
18
32
34
12
169
253
253
129
161
143
21
29
25
27
32
35
25
33
39
37
32
30
30
31
26
26
26
27
27
28
28
28
39
18
27
32
26
34
68
255
255
255
255
255
255
255
255
255
255
255
255
255
255
255
255
255
255
250
255
239
85
21
25
33
28
28
28
28
28
28
28
28
31
20
26
2
231
252
252
215
113
228
107
23
32
28
22
42
24
21
15
14
21
30
29
23
25
25
26
26
27
28
29
29
31
29
29
27
17
29
32
242
255
255
255
255
255
255
255
255
255
255
255
255
255
255
255
255
253
250
255
219
66
18
25
27
28
28
28
28
28
28
28
28
31
30
89
132
227
255
255
248
180
150
245
140
39
17
27
73
173
114
50
33
61
82
63
29
24
24
25
26
27
28
29
30
17
42
27
28
40
20
39
200
255
255
255
255
255
255
255
255
255
255
255
255
255
255
255
255
255
254
255
205
50
20
29
29
28
24
31
22
33
31
23
82
172
255
248
249
255
246
255
253
255
224
226
255
226
140
66
35
75
159
211
208
229
255
238
163
113
127
160
74
27
30
16
37
29
27
28
23
38
22
23
203
255
255
255
255
255
255
255
255
255
255
255
255
255
255
255
255
255
249
253
200
40
24
29
26
32
32
15
46
26
15
153
253
255
238
250
255
255
255
241
255
248
255
255
255
255
255
241
205
146
124
131
183
235
253
254
255
255
252
251
255
144
18
32
25
29
27
31
25
32
21
38
222
255
255
255
255
255
255
255
255
255
255
255
255
255
255
255
255
255
246
251
198
30
28
31
26
21
33
32
28
15
154
255
169
97
116
148
214
253
249
254
255
255
249
251
255
252
254
255
253
246
251
248
240
245
255
255
252
247
255
245
248
242
136
28
32
30
26
33
28
25
22
60
245
255
255
255
255
255
255
255
255
255
255
255
255
255
255
255
255
255
249
255
206
31
28
32
28
33
28
25
20
120
232
104
19
11
0
2
50
145
247
255
239
255
255
255
255
251
255
255
246
253
254
254
254
255
255
254
245
255
243
255
251
255
232
63
15
30
26
32
30
23
24
76
255
255
255
255
255
255
255
255
255
255
255
255
255
255
255
255
255
255
253
255
221
51
22
30
29
22
44
15
66
254
144
0
143
213
167
66
26
6
66
219
255
251
247
250
253
252
255
255
254
255
252
249
237
204
168
165
182
209
234
255
252
251
254
165
12
29
27
28
30
26
27
82
255
255
255
255
255
255
255
255
255
255
255
255
255
255
255
255
255
253
255
255
238
87
15
29
28
26
27
23
151
239
39
124
255
253
250
255
178
95
18
22
210
255
251
253
255
255
253
245
239
147
104
47
15
22
41
39
23
0
71
165
253
255
239
205
39
24
31
25
28
30
27
80
254
255
255
255
255
255
255
255
255
255
255
255
255
255
255
255
255
250
255
250
254
131
15
32
27
56
0
18
224
194
65
231
246
248
255
248
250
255
176
114
221
239
255
255
244
242
255
247
207
72
75
98
140
176
191
195
198
147
26
26
143
248
255
239
69
17
37
25
26
33
25
76
254
255
255
255
255
255
255
255
255
255
255
255
255
255
255
255
255
251
255
246
255
162
18
37
28
19
36
30
231
235
224
253
255
255
249
255
255
249
251
255
252
255
251
250
255
255
255
251
244
235
247
254
253
252
255
255
251
252
217
64
26
204
255
247
101
12
41
25
24
34
22
73
255
255
255
255
255
255
255
255
255
255
255
255
255
255
255
255
255
255
242
254
255
221
45
34
28
24
27
41
241
251
255
255
253
255
255
255
255
255
255
255
255
255
255
255
255
255
255
255
255
252
252
252
252
252
252
252
252
254
248
234
95
119
255
255
104
6
38
21
28
41
7
88
255
255
255
255
255
255
255
255
255
255
255
255
255
255
255
255
255
255
255
255
240
255
123
0
19
34
31
45
239
248
255
255
255
255
255
255
255
255
255
255
255
255
255
255
255
255
255
255
255
254
254
254
254
254
254
254
254
255
252
255
219
215
247
252
145
13
35
39
25
20
30
105
255
255
255
255
255
255
255
255
255
255
255
255
255
255
255
255
255
254
251
255
243
255
223
95
47
25
20
46
243
253
255
255
253
255
255
255
255
255
255
255
255
255
255
255
255
255
255
255
255
255
255
255
255
255
255
255
255
250
253
255
255
255
240
255
141
7
33
16
30
31
20
163
250
255
255
255
255
255
255
255
255
255
255
255
255
255
255
255
255
252
247
255
255
244
255
244
142
34
14
48
243
254
255
254
254
255
255
255
255
255
255
255
255
255
255
255
255
255
255
255
255
255
255
255
255
255
255
255
255
255
255
247
249
255
250
255
139
11
45
23
26
32
22
227
251
255
255
255
255
255
255
255
255
255
255
255
255
255
255
255
255
255
255
247
253
255
244
255
235
72
21
46
235
249
250
254
255
255
255
255
255
255
255
255
255
255
255
255
255
255
255
255
255
255
255
255
255
255
255
255
255
255
248
255
255
255
246
255
160
15
35
38
25
17
81
241
255
255
255
255
255
255
255
255
255
255
255
255
255
255
255
255
255
255
255
255
241
255
248
249
254
104
16
33
229
255
255
251
254
255
255
255
255
255
255
255
255
255
255
255
255
255
255
255
255
255
255
255
255
255
255
255
255
255
242
255
255
254
248
251
158
22
18
12
109
109
173
248
249
255
255
255
255
255
255
255
255
255
255
255
255
255
255
255
255
255
251
255
249
248
255
254
245
156
23
19
217
255
255
251
250
255
255
255
255
255
255
255
255
255
255
255
255
255
255
255
255
255
255
255
255
255
255
255
255
255
255
255
249
254
255
255
145
24
29
56
224
241
244
255
255
255
255
255
255
255
255
255
255
255
255
255
255
255
255
255
255
253
255
246
255
251
255
251
255
229
54
15
199
250
255
255
255
255
255
255
255
255
255
255
255
255
255
255
255
255
255
255
255
255
255
255
255
255
255
255
255
254
251
255
255
255
244
252
137
1
34
164
252
255
255
244
255
255
255
255
255
255
255
255
255
255
255
255
255
255
255
255
255
255
255
255
255
255
254
254
254
246
204
32
161
248
255
249
255
255
255
255
255
255
255
255
255
255
248
255
255
255
255
251
252
255
255
255
255
255
255
255
255
255
254
255
252
246
250
255
122
0
109
254
254
249
255
254
253
255
255
255
255
255
255
255
255
255
255
255
255
255
255
255
255
255
255
255
255
255
254
254
254
255
245
167
138
255
246
251
255
255
255
255
255
255
255
255
255
248
255
255
248
248
255
255
254
255
255
255
255
255
255
255
255
251
255
249
248
255
255
238
109
22
208
255
249
255
251
255
255
255
255
255
255
255
255
255
255
255
255
255
255
255
255
255
255
255
255
255
255
255
254
254
254
247
255
215
141
255
255
255
249
255
255
255
255
255
255
255
255
254
255
247
255
255
244
252
255
255
255
255
255
255
255
255
255
251
255
255
249
252
255
237
87
81
255
252
251
255
251
252
255
255
255
255
255
255
255
255
255
255
255
255
255
255
255
255
255
255
255
255
255
255
254
254
254
226
232
255
235
234
253
255
255
255
255
255
255
255
255
255
255
252
255
255
251
255
255
252
255
255
255
255
255
255
255
255
255
255
253
255
251
248
255
209
45
190
242
255
255
252
255
247
251
255
255
255
255
255
255
255
255
255
255
255
255
255
255
255
255
255
255
255
255
255
254
254
254
219
119
218
218
236
255
251
252
255
255
255
255
255
255
255
255
255
248
255
249
253
255
249
255
255
255
255
255
255
255
255
255
255
255
248
253
255
252
196
142
255
242
255
251
249
255
254
255
255
255
255
255
255
255
255
255
255
255
255
255
255
255
255
255
255
255
255
255
255
254
254
254
238
141
50
56
220
255
249
254
255
255
255
255
255
255
255
255
255
248
255
255
255
255
253
248
255
255
255
255
255
255
255
255
250
255
255
255
248
253
204
174
243
255
255
246
255
248
255
255
255
255
255
255
255
255
255
255
255
255
255
255
255
255
255
255
255
255
255
255
255
254
254
254
255
255
82
8
138
247
245
255
255
255
255
255
255
255
255
255
255
254
245
255
233
231
255
255
255
255
255
255
255
255
255
255
255
248
251
255
248
255
156
48
209
255
247
251
255
249
255
251
255
255
255
255
255
255
255
255
255
255
255
255
255
255
255
255
255
255
255
255
255
254
254
254
248
250
249
66
65
255
255
248
255
255
255
255
255
255
255
255
203
97
47
160
131
38
146
236
255
255
255
255
255
255
255
255
251
255
252
255
251
245
121
70
239
255
247
255
251
255
253
255
255
255
255
255
255
255
255
255
255
255
255
255
255
255
255
255
255
255
255
255
255
255
255
255
254
255
242
238
135
212
253
255
246
255
252
247
255
245
205
97
36
17
13
104
87
6
37
39
121
204
225
255
247
246
255
244
255
248
255
247
255
238
177
227
255
255
255
255
255
255
255
255
255
255
255
255
255
255
255
255
255
255
255
255
255
255
255
255
255
255
255
255
255
255
255
255
255
255
255
255
226
255
255
254
255
253
247
255
223
103
8
24
20
30
29
150
123
0
41
35
33
0
65
126
215
250
255
255
255
251
255
246
255
255
224
255
255
255
255
255
255
255
255
255
255
255
255
255
255
255
255
255
255
255
255
255
255
255
255
255
255
255
255
255
255
255
255
255
252
252
247
250
255
255
249
251
255
250
255
224
61
9
44
26
22
18
104
251
220
61
6
17
11
45
18
8
59
198
246
255
252
255
255
246
252
255
253
255
255
255
255
255
255
255
255
255
255
255
255
255
255
255
255
255
255
255
255
255
255
255
255
255
255
255
255
255
255
255
255
255
255
255
251
244
255
247
248
255
249
255
234
91
23
35
15
70
117
171
248
255
241
226
155
92
75
43
33
29
21
104
252
246
251
255
255
254
249
252
255
247
255
255
255
255
255
255
255
255
255
255
255
255
255
255
255
255
255
255
255
255
255
255
255
255
255
255
255
255
255
255
255
255
254
255
255
255
253
253
255
255
250
255
193
36
10
81
200
250
255
255
245
255
255
248
255
251
237
228
186
66
0
83
233
255
252
253
252
255
254
249
255
251
255
255
255
255
255
255
255
255
255
255
255
255
255
255
255
255
255
255
255
255
255
255
255
255
255
255
255
255
255
255
255
255
249
250
253
255
245
255
255
246
255
245
199
38
111
232
255
249
254
250
250
254
253
249
252
255
255
255
254
224
56
78
232
255
255
252
250
255
255
249
255
255
255
255
255
255
255
255
255
255
255
255
255
255
255
255
255
255
255
255
255
255
255
255
255
255
255
255
255
255
255
255
255
255
255
255
251
255
252
255
255
255
251
255
223
166
233
255
255
251
249
252
255
254
254
255
243
250
239
255
247
253
220
156
255
254
255
254
255
254
253
252
251
255
255
255
255
255
255
255
255
255
255
255
255
255
255
255
255
255
255
255
255
255
255
255
255
255
255
255
255
255
255
255
255
255
255
255
254
253
255
250
246
255
255
252
255
248
251
253
255
255
252
255
243
249
255
251
255
251
255
255
249
255
251
255
253
253
251
254
255
254
255
255
250
255
255
255
255
255
255
255
255
255
255
255
255
255
255
255
255
255
255
255
255
255
255
255
255
255
255
255
255
255
255
255
255
255
255
255
255
255
255
255
255
255
255
255
255
255
255
255
255
255
255
255
255
255
255
255
255
255
255
255
255
255
255
255
255
255
255
255
255
255
255
255
255
255
255
255
255
255
255
255
255
255
255
255
255
255
255
255
255
255
255
255
255
255
255
255
255
255
255
255
255
255
255
255
255
255
255
255
255
255
255
255
255
255
255
255
255
255
255
255
255
255
255
255
255
255
255
255
255
255
255
255
255
255
255
255
255
255
255
255
255
255
255
255
255
255
255
255
255
255
255
255
255
255
255
255
255
255
255
255
255
255
255
255
255
255
255
255
255
255
255
255
255
255
255
255
255
255
255
255
255
255
255
255
255
255
255
255
255
255
255
255
255
255
255
255
255
255
255
255
255
255
255
255
255
255
255
255
255
255
255
255
255
255
255
255
255
255
255
255
255
255
255
255
255
255
255
255
255
255
255
255
255
255
255
255
255
255
255
255
255
255
255
255
255
255
255
255
255
255
255
255
255
255
255
255
255
255
255
255
255
255
255
255
255
255
255
255
255
255
255
255
255
255
255
255
255
255
255
255
255
255
255
255
255
255
255
255
255
255
255
255
255
255
255
255
255
255
255
255
255
255
255
255
255
255
255
255
255
255
255
255
255
255
255
255
255
255
255
255
255
255
255
255
255
255
255
255
255
255
255
255
255
255
255
255
255
255
255
255
255
255
255
255
255
255
255
255
255
255
255
255
255
255
255
255
255
255
255
255
255
255
255
255
255
255
255
255
255
255
255
255
255
255
255
255
255
255
255
255
255
255
255
255
255
255
255
255
255
255
255
255
255
255
255
255
255
255
255
255
255
255
255
255
255
255
255
255
255
255
255
255
255
255
255
255
255
255
255
255
255
255
255
255
255
255
255
255
255
255
255
255
255
255
255
255
255
255
255
255
255
255
255
255
255
255
255
255
255
255
255
255
255
255
255
255
255
255
255
255
255
255
255
255
255
255
255
255
255
255
255
255
255
255
255
255
255
255
255
255
255
255
255
255
255
255
255
255
255
255
255
255
255
255
255
255
255
255
255
255
255
255
255
255
255
255
255
255
255
255
255
255
255
255
255
255
255
255
255
255
255
255
255
255
255
255
255
255
255
255
255
255
255
255
255
255
255
255
255
255
255
255
255
255
255
255
255
255
255
255
255
255
255
255
255
255
255
255
255
255
255
255
255
255
255
255
255
255
255
255
255
255
255
255
255
255
255
255
255
255
255
255
255
255
255
255
255
255
255
255
255
255
255
255
255
255
255
255
255
255
255
255
255
255
255
255
255
255
255
255
255
255
255
255
255
255
255
255
255
255
255
255
255
255
255
255
255
255
255
255
255
255
255
255
255
255
255
255
255
255
255
255
255
255
255
255
255
255
255
255
255
255
255
255
255
255
255
255
255
255
255
255
255
255
255
255
255
255
255
255
255
255
255
255
255
255
255
255
255
255
255
255
255
255
255
255
255
255
255
255
255
255
255
255
255
255
255
255
255
255
255
255
255
255
255
255
255
255
255
255
255
255
255
255
255
255
255
255
255
255
255
255
255
255
255
255
255
255
255
255
255
255
255
255
255
255
255
